<?xml version="1.0" encoding="utf-8"?>
<svg viewBox="0 0 500 500" xmlns="http://www.w3.org/2000/svg">
  <rect x="27.763" y="148.632" width="362.816" height="12.619" style="stroke: rgb(0, 0, 0); transform-origin: 209.171004px 154.941489px;" transform="matrix(-0.866025090218, 0.500001013279, -0.500001013279, -0.866025090218, -35.144987376654, 30.026101188031)"/>
  <rect x="174.318" y="233.495" width="201.593" height="11.163" style="stroke: rgb(0, 0, 0); transform-origin: 275.114467px 239.076499px;" transform="matrix(0.414561003447, 0.91002112627, -0.911208927631, 0.411953985691, 105.402403869355, -52.156854106444)"/>
  <rect x="-4.3" y="420.178" width="281.104" height="15.173" style="stroke: rgb(0, 0, 0); transform-origin: 136.251993px 427.764483px;" transform="matrix(0.999391138554, -0.034900005907, 0.034900005907, 0.999391138554, 24.632291677626, -146.167866335248)"/>
  <rect x="108.63" y="87.83" width="155.513" height="12.044" style="stroke: rgb(0, 0, 0); transform-origin: 186.386513px 93.851994px;" transform="matrix(0.681997895241, 0.731353998184, -0.731353998184, 0.681997895241, 66.668812528046, 128.312228075492)"/>
  <rect x="267.772" y="228.584" width="132.08" height="12.104" style="stroke: rgb(0, 0, 0); transform-origin: 333.811984px 234.635967px;" transform="matrix(-0.463473051786, 0.886111021042, -0.850542128086, -0.531476974487, 4.612398859071, -18.388727272628)"/>
  <ellipse style="stroke: rgb(0, 0, 0);" cx="334.662" cy="95.896" rx="9.621" ry="9.825"/>
  <ellipse style="stroke: rgb(0, 0, 0);" cx="299.597" cy="276.08" rx="14.041" ry="8.334"/>
  <rect x="207.732" y="159.834" width="154.426" height="11.26" style="stroke: rgb(0, 0, 0); transform-origin: 284.944945px 165.463965px;" transform="matrix(0.994522333145, -0.104528002441, 0.104528002441, 0.994522333145, 0.000003935611, 0.000188475377)"/>
  <rect x="88.573" y="165.688" width="129.077" height="9.538" style="stroke: rgb(0, 0, 0); transform-origin: 153.111488px 170.456995px;" transform="matrix(-0.866026103497, 0.5, -0.5, -0.866026103497, 159.433355993757, 19.892726203182)"/>
  <path style="stroke: rgb(0, 0, 0); fill: rgb(128, 138, 98);" d="M 200.835 173.647 L 27.318 277.757 L 287.997 269.283"/>
  <path style="stroke: rgb(0, 0, 0); fill: rgb(156, 181, 131);" d="M 263.836 224.041 L 302.316 270.717 L 355.612 171.256"/>
  <path style="stroke: rgb(0, 0, 0); fill: rgb(43, 48, 35);" d="M 220.074 178.481 L 345.145 165.502 L 256.567 218.233"/>
  <path style="stroke: rgb(0, 0, 0); fill: rgb(159, 176, 116);" d="M 220.167 165.881 L 358.587 151.51 L 334.835 99.462"/>
  <path style="stroke: rgb(0, 0, 0);" d="M 13.359 270.45 C 2.042 277.293 5.144 292.57 20.253 294.087"/>
  <path style="stroke: rgb(0, 0, 0);" d="M 12.697 271.304 L 25.657 271.433 L 19.947 293.952"/>
</svg>