<?xml version="1.0" encoding="utf-8"?>
<svg viewBox="0 0 500 500" xmlns="http://www.w3.org/2000/svg">
  <path d="M 42.911 406.501 L 42.911 372.782 L 457.089 372.782 L 457.089 406.501 L 42.911 406.501 Z" style="stroke-width: 26px; stroke-opacity: 0.35; opacity: 0.45;"/>
  <path d="M 99.39 322.205 L 99.39 136.756 L 99.39 322.205 Z" style="stroke-width: 26px; stroke-opacity: 0.35; opacity: 0.45;"/>
  <path d="M 99.39 322.205 L 400.61 322.205 L 400.61 136.756 L 99.39 136.756 L 99.39 322.205 Z" style="stroke-width: 26px; stroke-opacity: 0.35; opacity: 0.45;"/>
  <path d="M 99.39 355.923 C 89.035 355.923 80.171 352.622 72.798 346.019 C 65.424 339.416 61.737 331.478 61.737 322.205 L 61.737 136.756 C 61.737 127.484 65.424 119.546 72.798 112.943 C 80.171 106.339 89.035 103.038 99.39 103.038 L 400.61 103.038 C 410.964 103.038 419.829 106.339 427.202 112.943 C 434.576 119.546 438.262 127.484 438.262 136.756 L 438.262 322.205 C 438.262 331.478 434.576 339.416 427.202 346.019 C 419.829 352.622 410.964 355.923 400.61 355.923 L 99.39 355.923 Z" style="stroke-width: 26px; stroke-opacity: 0.35; opacity: 0.45;"/>
  <path d="M 200.619 302.775 L 125.167 228.118 L 200.619 153.461 L 218.539 171.192 L 160.692 228.429 L 218.224 285.355 L 200.619 302.775 Z" style="stroke-width: 26px; stroke-opacity: 0.35; opacity: 0.45;"/>
  <path d="M 301.221 302.775 L 283.301 285.044 L 341.148 227.807 L 283.616 170.881 L 301.221 153.461 L 376.673 228.118 L 301.221 302.775 Z" style="stroke-width: 26px; stroke-opacity: 0.35; opacity: 0.45;"/>
</svg>
