<svg xmlns="http://www.w3.org/2000/svg" viewBox="0 0 1280 100" width="100%">
  <path d="M 0 49.5 Q 26.67 49.5 53.33 25 Q 106.67 -24 160 25 Q 186.67 49.5 213.33 49.5 Q 240 49.5 266.67 25 Q 320 -24 373.33 25 Q 400 49.5 426.67 49.5 Q 453.33 49.5 480 25 Q 533.33 -24 586.67 25 Q 613.33 49.5 640 49.5 Q 666.67 49.5 693.33 25 Q 746.67 -24 800 25 Q 826.67 49.5 853.33 49.5 Q 880 49.5 906.67 25 Q 960 -24 1013.33 25 Q 1040 49.5 1066.67 49.5 Q 1093.33 49.5 1120 25 Q 1173.33 -24 1226.67 25 Q 1253.33 49.5 1280 49.5" fill="none" stroke="#000000" stroke-width="1" transform="translate(0, 25)"></path>
</svg>